HIERARCHY
ROOT joint_Root
{
	OFFSET 0.0 0.0 0.0
	CHANNELS 6 Xposition Yposition Zposition Zrotation Xrotation Yrotation 
	JOINT Hips
	{
		OFFSET -0.726466 93.3139 -2.00062
		CHANNELS 6 Xposition Yposition Zposition Zrotation Xrotation Yrotation 
		JOINT Spine
		{
			OFFSET 15.7357 0.0 0.0
			CHANNELS 6 Xposition Yposition Zposition Zrotation Xrotation Yrotation 
			JOINT Chest
			{
				OFFSET 8.98455 -0.406207 0.0
				CHANNELS 6 Xposition Yposition Zposition Zrotation Xrotation Yrotation 
				JOINT Neck
				{
					OFFSET 16.3773 0.0 0.0
					CHANNELS 6 Xposition Yposition Zposition Zrotation Xrotation Yrotation 
					JOINT Head
					{
						OFFSET 6.45672 0.0 0.0
						CHANNELS 6 Xposition Yposition Zposition Zrotation Xrotation Yrotation 
						End Site
						{
							OFFSET 0.0 0.0 0.0
						}
					}
				}
				JOINT Shoulder_L
				{
					OFFSET 12.9942 -0.242716 4.98039
					CHANNELS 6 Xposition Yposition Zposition Zrotation Xrotation Yrotation 
					JOINT UpperArm_L
					{
						OFFSET 5.34809 0.0 0.0
						CHANNELS 6 Xposition Yposition Zposition Zrotation Xrotation Yrotation 
						JOINT LowerArm_L
						{
							OFFSET 24.3286 1.87007e-05 0.0
							CHANNELS 6 Xposition Yposition Zposition Zrotation Xrotation Yrotation 
							JOINT Hand_L
							{
								OFFSET 22.2916 0.0 0.0
								CHANNELS 6 Xposition Yposition Zposition Zrotation Xrotation Yrotation 
								End Site
								{
									OFFSET 0.0 0.0 0.0
								}
							}
						}
					}
				}
				JOINT Shoulder_R
				{
					OFFSET 12.9945 -0.242716 -4.98039
					CHANNELS 6 Xposition Yposition Zposition Zrotation Xrotation Yrotation 
					JOINT UpperArm_R
					{
						OFFSET -5.34813 0.0 0.0
						CHANNELS 6 Xposition Yposition Zposition Zrotation Xrotation Yrotation 
						JOINT LowerArm_R
						{
							OFFSET -24.3289 0.000322201 0.0
							CHANNELS 6 Xposition Yposition Zposition Zrotation Xrotation Yrotation 
							JOINT Hand_R
							{
								OFFSET -22.2915 -0.000108084 0.0
								CHANNELS 6 Xposition Yposition Zposition Zrotation Xrotation Yrotation 
								End Site
								{
									OFFSET 0.0 0.0 0.0
								}
							}
						}
					}
				}
			}
		}
		JOINT UpperLeg_L
		{
			OFFSET -2.19248 -6.46944 0.0
			CHANNELS 6 Xposition Yposition Zposition Zrotation Xrotation Yrotation 
			JOINT LowerLeg_L
			{
				OFFSET 39.0811 0.0 -1.23785e-05
				CHANNELS 6 Xposition Yposition Zposition Zrotation Xrotation Yrotation 
				JOINT Foot_L
				{
					OFFSET 40.9854 0.0 -1.26872e-05
					CHANNELS 6 Xposition Yposition Zposition Zrotation Xrotation Yrotation 
					JOINT Toes_L
					{
						OFFSET 11.7543 0.0 0.0
						CHANNELS 6 Xposition Yposition Zposition Zrotation Xrotation Yrotation 
						End Site
						{
							OFFSET 0.0 0.0 0.0
						}
					}
				}
			}
		}
		JOINT UpperLeg_R
		{
			OFFSET -2.19251 6.46944 0.0
			CHANNELS 6 Xposition Yposition Zposition Zrotation Xrotation Yrotation 
			JOINT LowerLeg_R
			{
				OFFSET -39.0811 -0.00228153 -0.0401928
				CHANNELS 6 Xposition Yposition Zposition Zrotation Xrotation Yrotation 
				JOINT Foot_R
				{
					OFFSET -40.9854 0.0 0.0
					CHANNELS 6 Xposition Yposition Zposition Zrotation Xrotation Yrotation 
					JOINT Toes_R
					{
						OFFSET -11.7543 0.0 0.0
						CHANNELS 6 Xposition Yposition Zposition Zrotation Xrotation Yrotation 
						End Site
						{
							OFFSET 0.0 0.0 0.0
						}
					}
				}
			}
		}
	}
}
MOTION
Frames:	4
Frame Time:	0.0333333
0.000000 0.000000 0.000000 0.000000 0.000000 -0.000000 -1.503370 92.107500 -1.327120 87.460100 0.092089 1.765120 15.735700 0.000005 -0.000001 84.978300 85.608200 -84.684300 8.984550 -0.406207 -0.000000 0.986094 -0.785939 0.594171 16.377300 -0.000001 -0.000001 1.364220 -2.060410 -0.627920 6.456720 -0.000001 -0.000000 0.042020 -1.316050 5.294100 12.994200 -0.242716 4.980390 -89.546300 -1.445630 -72.575100 5.348090 -0.000007 -0.000001 -67.317900 37.570300 -15.626200 24.328600 0.000019 0.000005 3.082820 6.855150 -24.285500 22.291600 -0.000001 0.000005 7.574980 5.530960 -7.832760 12.994500 -0.242716 -4.980390 87.592300 7.114730 -71.248800 -5.348130 -0.000001 -0.000004 -64.557300 38.892200 -15.502400 -24.328900 0.000322 -0.000009 0.832581 2.173750 -20.987800 -22.291500 -0.000108 -0.000004 15.400500 5.507630 -6.843850 -2.192480 -6.469440 -0.000000 -168.066000 -16.097600 -3.963180 39.081100 -0.000007 -0.000012 -0.178248 0.482005 20.294900 40.985400 -0.000006 -0.000013 -7.022180 3.435940 -62.419800 11.754300 -0.000000 0.000003 -0.000166 -0.001579 -16.637400 -2.192510 6.469440 -0.000001 175.116000 21.959900 178.254000 -39.081100 -0.002282 -0.040193 -0.037689 0.121923 18.592100 -40.985400 0.000008 0.000006 -3.054980 3.817500 -62.993600 -11.754300 -0.000006 -0.000006 -0.004871 -0.060207 -19.022700
0.000000 0.000000 0.000000 0.000000 0.000000 -0.000000 -1.490370 92.114600 -1.375730 87.453300 0.069134 1.691770 15.735700 0.000005 -0.000001 84.863500 85.626600 -84.564400 8.984550 -0.406207 -0.000000 0.947957 -0.800573 0.604244 16.377300 -0.000001 -0.000001 1.062250 -2.089210 -0.556565 6.456720 -0.000001 -0.000000 -0.395435 -1.402010 5.399020 12.994200 -0.242716 4.980390 -89.507700 -1.550850 -72.387200 5.348090 -0.000007 -0.000001 -67.885700 34.946400 -15.057000 24.328600 0.000019 0.000005 2.793270 6.149340 -24.487500 22.291600 -0.000001 0.000005 10.367800 5.537890 -8.143850 12.994500 -0.242716 -4.980390 87.642300 6.908460 -71.103900 -5.348130 -0.000001 -0.000004 -65.308100 36.719700 -15.041700 -24.328900 0.000322 -0.000009 0.689985 1.831170 -20.678800 -22.291500 -0.000108 -0.000004 18.275200 5.510140 -6.951270 -2.192480 -6.469440 -0.000000 -168.103000 -16.114300 -4.081490 39.081100 -0.000007 -0.000012 -0.177599 0.480220 20.296000 40.985400 -0.000006 -0.000013 -7.013260 3.379360 -62.381700 11.754300 -0.000000 0.000003 -0.000156 -0.001498 -16.634400 -2.192510 6.469440 -0.000001 175.168000 21.953900 178.129000 -39.081100 -0.002282 -0.040193 -0.036173 0.117406 18.593600 -40.985400 0.000008 0.000006 -2.952370 3.822300 -62.963900 -11.754300 -0.000006 -0.000006 -0.005236 -0.063734 -19.166500
0.000000 0.000000 0.000000 0.000000 0.000000 -0.000000 -1.487720 92.141500 -1.442990 87.461900 0.083157 1.623350 15.735700 0.000005 -0.000001 84.632300 85.661100 -84.335300 8.984550 -0.406207 -0.000000 0.876014 -0.829325 0.600060 16.377300 -0.000001 -0.000001 0.744162 -2.113720 -0.520101 6.456720 -0.000001 -0.000000 -0.780060 -1.503820 5.587640 12.994200 -0.242716 4.980390 -89.493500 -1.576910 -72.188800 5.348090 -0.000007 -0.000001 -68.152400 31.068000 -14.618100 24.328600 0.000019 0.000005 2.055340 4.561710 -24.285100 22.291600 -0.000001 0.000005 12.185500 5.547870 -8.603780 12.994500 -0.242716 -4.980390 87.679100 6.741570 -70.952400 -5.348130 -0.000001 -0.000004 -66.187600 32.885100 -14.380300 -24.328900 0.000322 -0.000009 0.295600 0.806494 -20.191200 -22.291500 -0.000108 -0.000004 20.010600 5.500230 -6.547460 -2.192480 -6.469440 -0.000000 -168.148000 -16.065000 -4.103140 39.081100 -0.000007 -0.000012 -0.174736 0.477464 20.101200 40.985400 -0.000006 -0.000013 -7.012900 3.353800 -62.250100 11.754300 -0.000000 0.000003 -0.000163 -0.001562 -16.636800 -2.192510 6.469440 -0.000001 175.232000 21.959600 178.050000 -39.081100 -0.002282 -0.040193 -0.031300 0.103601 18.480000 -40.985400 0.000008 0.000006 -2.818520 3.777880 -62.869800 -11.754300 -0.000006 -0.000006 -0.004812 -0.059637 -18.999500
0.000000 0.000000 0.000000 0.000000 0.000000 -0.000000 -1.492210 92.143700 -1.495270 87.457400 0.082369 1.601910 15.735700 0.000005 -0.000001 84.658900 85.686100 -84.364500 8.984550 -0.406207 -0.000000 0.826625 -0.820640 0.594177 16.377300 -0.000001 -0.000001 0.389043 -2.174360 -0.455710 6.456720 -0.000001 -0.000000 -1.172880 -1.594210 5.720910 12.994200 -0.242716 4.980390 -89.461700 -1.666460 -72.096300 5.348090 -0.000007 -0.000001 -67.567300 26.834300 -14.815200 24.328600 0.000019 0.000005 1.521130 3.470680 -23.684000 22.291600 -0.000001 0.000005 12.716700 5.544130 -8.433170 12.994500 -0.242716 -4.980390 87.719600 6.553460 -70.765700 -5.348130 -0.000001 -0.000004 -66.604200 28.131400 -14.069300 -24.328900 0.000322 -0.000009 -0.055709 -0.155621 -19.386500 -22.291500 -0.000108 -0.000004 20.569400 5.487290 -6.029050 -2.192480 -6.469440 -0.000000 -168.169000 -16.061400 -4.185960 39.081100 -0.000007 -0.000012 -0.173661 0.473702 20.133300 40.985400 -0.000006 -0.000013 -7.005760 3.305990 -62.226900 11.754300 -0.000000 0.000003 -0.000168 -0.001602 -16.638300 -2.192510 6.469440 -0.000001 175.257000 21.990700 177.984000 -39.081100 -0.002282 -0.040193 -0.031826 0.105082 18.495400 -40.985400 0.000008 0.000006 -2.809350 3.780220 -62.843600 -11.754300 -0.000006 -0.000006 -0.005161 -0.063014 -19.137100
